PathFileType	4	(X/Y/Z)	/Volumes/GoogleDrive/My Drive/Research/Stanford/Projects/Digital Athlete Project/Sprinting/Sprint Simulation/sprinter/subjects/JA1/experimental_data/TRC/run0350cms.trc
DataRate	CameraRate	NumFrames	NumMarkers	Units	OrigDataRate	OrigDataStartFrame	OrigNumFrames
250.000000	250.000000	6	53	mm	250.000000	732	836
Frame#	Time	C7			RSH			LSH			MAN			T7			LARM			LELB			LFOREARM			LWR			RARM			RELB			RFOREARM			RWR			RASI			LASI			SACR			P1			P2			P3			LTHLP			LTHLD			LTHAP			LTHAD			LLEPI			LPAT			LTIAP			LTIAD			LTILAT			LLMAL			LHEEL			LMFS			LMFL			LP1MT			LTOE			LP5MT			RTHLP			RTHLD			RTHAP			RTHAD			RLEPI			RPAT			RTIAP			RTIAD			RTILAT			RLMAL			RHEEL			RMFS			RMFL			RP1MT			RTOE			RP5MT			x52			x53			
		X1	Y1	Z1	X2	Y2	Z2	X3	Y3	Z3	X4	Y4	Z4	X5	Y5	Z5	X6	Y6	Z6	X7	Y7	Z7	X8	Y8	Z8	X9	Y9	Z9	X10	Y10	Z10	X11	Y11	Z11	X12	Y12	Z12	X13	Y13	Z13	X14	Y14	Z14	X15	Y15	Z15	X16	Y16	Z16	X17	Y17	Z17	X18	Y18	Z18	X19	Y19	Z19	X20	Y20	Z20	X21	Y21	Z21	X22	Y22	Z22	X23	Y23	Z23	X24	Y24	Z24	X25	Y25	Z25	X26	Y26	Z26	X27	Y27	Z27	X28	Y28	Z28	X29	Y29	Z29	X30	Y30	Z30	X31	Y31	Z31	X32	Y32	Z32	X33	Y33	Z33	X34	Y34	Z34	X35	Y35	Z35	X36	Y36	Z36	X37	Y37	Z37	X38	Y38	Z38	X39	Y39	Z39	X40	Y40	Z40	X41	Y41	Z41	X42	Y42	Z42	X43	Y43	Z43	X44	Y44	Z44	X45	Y45	Z45	X46	Y46	Z46	X47	Y47	Z47	X48	Y48	Z48	X49	Y49	Z49	X50	Y50	Z50	X51	Y51	Z51	X52	Y52	Z52	X53	Y53	Z53	
732	2.928000	4889.380371	1473.010498	223.232071	4914.447754	1453.441528	397.103363	4915.728516	1445.940796	58.792992	5024.922363	1362.790527	234.945801	4807.519531	1292.589600	227.507309	4879.153809	1255.789551	-40.340317	4854.606445	1125.965454	-80.587166	4979.906250	1060.712524	-45.044201	5087.048828	998.559387	-13.162821	4815.009766	1302.272583	487.339325	4737.329102	1198.111816	531.757080	4824.953125	1082.337646	532.972168	4900.840820	972.993164	519.294006	4986.173340	998.970276	332.698364	4957.778320	998.417847	120.602646	4789.826660	1034.181519	257.950867	4770.660645	1008.804688	206.743469	4781.549805	1003.180359	311.730530	4745.854492	949.760864	259.557648	4880.098145	691.052124	66.995026	4894.228516	579.488037	86.444901	5011.048828	693.853638	135.490875	5004.639648	582.806152	149.389938	4903.142090	458.824097	111.541664	4988.228027	457.068237	174.281113	4844.041504	304.289612	201.722076	4758.659668	192.367554	212.067139	4776.260254	259.767365	129.004440	4658.594727	81.626167	164.969391	4581.776367	69.449310	207.577789	4745.565430	61.672951	224.735229	4717.183105	37.429634	162.357590	4792.780273	13.982862	264.836884	4839.975586	18.049524	232.535889	4772.961914	-2.851051	138.334702	4994.431152	744.908997	431.003723	5061.520020	654.708008	421.261597	5103.096191	770.447937	336.741821	5150.520020	686.813660	333.057587	5115.161621	525.747620	382.310364	5198.158691	512.267822	326.781403	4946.495605	429.014099	288.445496	4823.294922	403.418579	270.356537	4913.335938	462.471039	368.051666	4697.374512	393.095673	323.648071	4642.687500	440.537262	268.108276	4727.869141	288.427032	290.406525	4683.684082	323.780029	340.327423	4700.267090	212.381317	259.087585	4724.755371	195.903564	300.779877	4673.539062	249.558411	375.596497	5141.503906	966.970032	3.040895	4943.280273	911.843872	511.644684
733	2.932000	4903.125000	1475.672485	223.114914	4927.181641	1456.482300	397.052338	4930.088379	1448.942139	59.106014	5038.721680	1365.969238	235.818863	4821.637207	1294.939819	227.023727	4895.646973	1258.504761	-40.239410	4872.714844	1128.348999	-80.149529	5000.047363	1067.481689	-43.330631	5108.903809	1009.334961	-10.187525	4825.277344	1306.941650	486.776123	4746.112793	1203.728271	530.774780	4831.390137	1086.230591	532.922302	4905.484863	975.531616	519.921204	5000.497559	1001.940857	332.514709	4971.624023	999.935303	120.441162	4804.324219	1037.213989	258.126953	4785.035645	1011.588257	206.995087	4795.970215	1006.169861	312.039337	4759.734863	952.122559	260.673126	4889.127930	693.493408	67.316551	4900.748047	581.636597	86.678299	5019.382324	693.920105	137.234680	5010.537598	582.643188	150.513748	4906.428223	460.498810	111.685234	4991.147461	457.171509	174.801483	4846.556641	306.288971	201.766022	4760.246582	194.621887	212.014481	4778.221191	261.952332	128.981400	4659.603516	83.984344	164.647476	4582.954590	73.160393	207.123016	4747.219238	62.776619	224.327805	4717.765137	38.560581	162.220352	4792.774902	13.986745	264.895874	4839.707520	18.042225	232.653198	4772.938965	-2.658652	138.456802	5009.817383	749.410522	431.746857	5078.328613	660.111023	422.314972	5118.829590	776.308411	338.185760	5167.484375	693.488892	334.650909	5134.247070	531.631958	383.325806	5217.973145	519.978088	328.164001	4968.591797	429.953918	288.673828	4846.280273	400.617493	269.967499	4933.263184	462.210999	367.916321	4720.212402	386.342468	322.736389	4664.427246	432.186890	267.216034	4754.067383	282.759827	289.356812	4708.760254	316.646606	339.229401	4729.301270	206.053909	257.719696	4753.981934	190.255798	299.551849	4700.528320	241.788055	374.221802	5164.230469	979.781921	6.657463	4946.921387	913.624878	512.650574
734	2.936000	4916.816895	1478.510620	223.023209	4939.728516	1459.753784	397.006958	4944.466797	1452.137085	59.398438	5052.457031	1369.191040	236.730637	4835.928711	1297.407959	226.596512	4911.998047	1261.371338	-40.116077	4890.665039	1130.940552	-79.684135	5019.673828	1074.296265	-41.693405	5130.212891	1020.406250	-7.237670	4835.943359	1311.842163	486.193451	4754.909180	1209.572632	529.726318	4838.025391	1090.521240	532.806824	4910.389648	978.557007	520.429382	5014.604492	1005.096680	332.254730	4986.166504	1001.912781	120.435295	4818.817871	1040.129272	258.322632	4799.570801	1014.577271	207.143845	4810.315430	1009.379028	312.341766	4777.342773	955.554199	259.666718	4898.444824	696.210571	67.661400	4907.545898	584.069153	86.860176	5027.872559	694.260071	139.142075	5016.514160	582.703796	151.932159	4909.745605	462.576782	111.846008	4994.240723	457.819366	175.382233	4847.994141	308.533051	201.701874	4761.770020	197.191208	211.761169	4780.287109	264.611816	129.002853	4660.991211	86.844101	164.264938	4584.452637	77.170090	206.611832	4748.499023	63.870850	224.097198	4718.442871	39.758667	162.150467	4792.783691	14.013417	264.922150	4839.623535	18.079641	232.804916	4772.920898	-2.435294	138.578720	5025.582520	754.059692	432.712219	5095.099121	665.490906	423.309387	5134.568848	782.136292	339.564148	5184.378906	700.000305	336.335968	5153.732910	537.511292	384.517761	5237.320313	527.542969	329.541534	4990.616699	430.661560	288.831268	4869.327637	397.723846	269.587769	4958.786133	462.498993	368.609497	4743.291992	379.451721	322.248169	4686.272949	423.707947	266.306854	4780.495605	277.076569	288.275879	4734.058105	309.357819	338.042267	4758.337891	199.609573	256.538605	4783.169434	184.635880	298.226990	4728.122070	234.173553	372.877197	5186.394531	993.016663	10.274462	4950.858398	915.942688	513.507507
735	2.940000	4930.546387	1481.473511	222.896820	4952.338867	1463.143555	396.871429	4958.814453	1455.426270	59.777699	5066.177246	1372.656738	237.651566	4850.119141	1299.981567	226.111511	4928.272949	1264.424683	-39.974091	4908.182617	1133.584961	-79.121452	5038.979980	1081.376709	-39.958149	5151.041016	1031.759277	-4.352493	4846.360840	1316.833008	485.629181	4763.740234	1215.490845	528.596252	4844.820801	1095.085083	532.594849	4915.444336	981.912598	520.798401	5029.054688	1008.289978	332.107941	5000.944824	1004.179260	120.530411	4833.604492	1043.254150	258.568481	4814.340332	1017.619263	207.384842	4825.072266	1012.636963	312.623718	4791.792480	958.860413	260.019318	4908.015137	699.062012	68.019920	4914.477539	586.759705	87.087975	5036.449219	694.829407	141.128510	5022.471191	583.148315	153.487534	4913.554688	465.153320	112.096863	4997.264160	458.896667	175.940170	4849.942871	311.070526	201.611053	4766.006836	200.491272	211.585556	4782.436523	267.640747	128.996796	4662.496094	89.937149	163.845886	4586.123047	81.620956	206.033325	4749.708496	64.914803	223.869461	4719.540039	41.253315	161.963730	4794.080078	14.338073	264.888336	4839.454102	18.073847	232.967087	4772.954590	-2.080801	138.677643	5041.335449	758.706726	433.639709	5111.647949	670.846130	424.265259	5150.270508	787.924805	340.902710	5201.157715	706.400818	338.048645	5172.089355	543.279236	385.470917	5256.380859	534.966125	330.950195	5012.423828	431.321564	288.969208	4892.684570	394.764587	269.083923	4977.474121	462.680115	368.816925	4766.396973	372.374298	321.274445	4708.370605	414.964661	265.396088	4807.560547	271.503418	287.403168	4759.587891	301.779388	336.743500	4788.686035	193.371552	255.227066	4812.358398	178.926331	296.867950	4755.794922	226.472580	371.401794	5207.996094	1006.541260	13.744086	4954.939453	918.622498	514.201416
736	2.944000	4944.211914	1484.507568	222.812668	4965.044434	1466.754639	396.716827	4973.045410	1458.838257	60.149490	5079.979004	1376.285278	238.593796	4864.498535	1302.618530	225.711365	4944.525879	1267.672974	-39.762730	4925.877441	1136.631714	-78.603973	5057.811523	1088.651733	-38.083065	5171.231445	1043.414551	-1.309763	4860.235352	1322.680542	484.592743	4772.630371	1221.560791	527.364563	4851.708984	1099.911377	532.238892	4920.755371	985.665527	521.052490	5043.660645	1011.616699	331.952026	5015.564941	1006.164612	120.503769	4848.333496	1046.753662	258.764740	4829.145020	1020.938965	207.702774	4839.610840	1016.046692	312.945465	4806.406250	962.212036	260.442657	4917.683105	702.142944	68.320564	4921.528809	589.674133	87.361153	5045.102539	695.530518	143.155746	5028.598145	583.983276	155.130020	4917.249512	468.005341	112.252388	5000.464844	460.456909	176.499878	4853.732910	314.283569	201.514618	4768.356934	203.725418	211.207642	4784.976562	271.167175	128.823593	4664.243164	93.388283	163.347321	4588.187012	86.567665	205.423798	4750.549805	65.981270	223.568909	4720.800293	42.968231	161.662201	4793.977539	14.323030	264.962952	4839.249512	18.159882	233.066696	4773.053223	-1.762600	138.770401	5057.157227	763.433594	434.624298	5128.141602	676.062744	425.161072	5166.000488	793.635071	342.207611	5217.844238	712.588257	339.820312	5190.445801	548.943054	386.547638	5274.978027	542.301147	332.408905	5033.869141	431.756927	289.181580	4915.720703	391.549316	268.706757	4998.574219	461.660522	368.848053	4789.746094	365.142609	320.504608	4730.662109	405.990692	265.027771	4833.969727	265.615234	286.178497	4785.073242	294.309418	335.539398	4818.265137	187.101410	253.735794	4843.270020	173.603546	295.390198	4783.603516	218.711121	369.913605	5228.877441	1020.422668	17.380272	4959.368652	921.775208	514.796631
737	2.948000	4957.871582	1487.600830	222.736511	4977.624512	1470.399536	396.548431	4987.295410	1462.322021	60.579674	5093.716309	1379.944702	239.547150	4878.833496	1305.313599	225.352478	4960.593262	1271.020508	-39.564079	4943.481445	1139.875000	-78.146126	5075.967285	1096.124756	-35.965046	5190.725586	1055.286987	1.792606	4871.093750	1328.009033	483.973541	4781.604980	1227.798462	526.112427	4858.816895	1104.967163	531.811951	4926.343262	989.673096	521.190918	5058.106934	1015.021912	331.890381	5031.665527	1008.657532	121.065491	4863.264648	1050.024902	258.996246	4844.085449	1024.304810	207.902664	4854.386230	1019.657776	313.229675	4821.135742	965.821838	260.816376	4927.645508	705.401978	68.628677	4928.759766	592.900818	87.584839	5054.045410	696.477539	145.050354	5034.901855	585.162292	156.720383	4921.351074	471.278412	112.482826	5003.979492	462.423523	176.963455	4856.554199	317.607147	201.291901	4770.990234	207.162354	210.776047	4787.448242	275.069122	128.707260	4666.197266	97.271965	162.777634	4590.480469	91.777084	204.656708	4754.947754	68.233650	223.152466	4722.291992	44.727398	161.307083	4793.813965	14.270329	265.058716	4839.111816	18.259487	233.211929	4773.146973	-1.394898	138.865021	5072.932617	768.194458	435.669434	5144.460938	681.254700	426.059448	5181.700684	799.308289	343.498322	5234.515625	718.681213	341.575439	5208.458008	554.544617	387.482971	5293.315430	549.521729	333.809937	5055.518555	432.310364	289.313385	4938.821289	388.298157	268.279663	5019.983887	460.404724	368.716766	4813.148438	357.786194	319.548828	4752.983887	397.145905	263.624207	4861.317871	259.823883	285.056915	4810.841309	286.734039	334.338226	4848.171387	181.004166	252.142868	4872.937500	168.063309	293.920471	4811.601074	210.898392	368.367676	5249.051270	1034.531250	20.982937	4964.106445	925.196594	515.251221
